<svg xmlns="http://www.w3.org/2000/svg" width="48" height="48" viewBox="0 0 48 48" fill="none">
  <defs>
    <linearGradient id="bg" x1="24" y1="0" x2="24" y2="48" gradientUnits="userSpaceOnUse">
      <stop stop-color="#FBF6EF"/>
      <stop offset="1" stop-color="#EBDFCF"/>
    </linearGradient>
    <linearGradient id="roofA" x1="13" y1="15" x2="25" y2="21" gradientUnits="userSpaceOnUse">
      <stop stop-color="#4A392D"/>
      <stop offset="1" stop-color="#89523D"/>
    </linearGradient>
    <linearGradient id="roofB" x1="23" y1="16" x2="35" y2="21" gradientUnits="userSpaceOnUse">
      <stop stop-color="#89523D"/>
      <stop offset="1" stop-color="#4A392D"/>
    </linearGradient>
    <linearGradient id="clay" x1="17" y1="24" x2="17" y2="38" gradientUnits="userSpaceOnUse">
      <stop stop-color="#89523D"/>
      <stop offset="1" stop-color="#624032"/>
    </linearGradient>
    <linearGradient id="sage" x1="30" y1="24" x2="30" y2="38" gradientUnits="userSpaceOnUse">
      <stop stop-color="#82948C"/>
      <stop offset="1" stop-color="#526860"/>
    </linearGradient>
    <linearGradient id="gold" x1="19" y1="35" x2="19" y2="43" gradientUnits="userSpaceOnUse">
      <stop stop-color="#D6BE8B"/>
      <stop offset="1" stop-color="#B28B4E"/>
    </linearGradient>
    <filter id="softShadow" x="4" y="8" width="40" height="36" color-interpolation-filters="sRGB" filterUnits="userSpaceOnUse">
      <feDropShadow dx="0" dy="3" stdDeviation="2.6" flood-color="#4A392D" flood-opacity="0.16"/>
    </filter>
  </defs>
  <rect width="48" height="48" rx="12" fill="url(#bg)"/>
  <circle cx="15" cy="11" r="10" fill="#B28B4E" opacity="0.12"/>
  <circle cx="37" cy="36" r="11" fill="#89523D" opacity="0.10"/>
  <g filter="url(#softShadow)">
    <path d="M14.5 22.4 24 14.5l9.5 7.9" stroke="#4A392D" stroke-opacity="0.4" stroke-width="2.25" stroke-linecap="round" stroke-linejoin="round"/>
    <rect x="12.8" y="16.7" width="14" height="5.2" rx="2.6" fill="url(#roofA)" transform="rotate(-35 19.8 19.3)"/>
    <rect x="21.2" y="16.7" width="14" height="5.2" rx="2.6" fill="url(#roofB)" transform="rotate(35 28.2 19.3)"/>
    <rect x="15" y="24" width="8" height="10.4" rx="2.4" fill="url(#clay)"/>
    <rect x="25" y="24" width="8" height="10.4" rx="2.4" fill="url(#sage)"/>
    <rect x="15" y="35.4" width="8" height="7.2" rx="2.4" fill="url(#gold)"/>
    <rect x="25" y="35.4" width="8" height="7.2" rx="2.4" fill="#4A392D"/>
    <rect x="21.7" y="29.4" width="4.6" height="2.4" rx="1.2" fill="#FFFAF3" opacity="0.9"/>
  </g>
</svg>
